<?xml version="1.0" encoding="UTF-8"?>
<svg id="Layer_1" data-name="Layer 1" xmlns="http://www.w3.org/2000/svg" viewBox="0 0 3403 2038">
  <defs>
    <style>
      .cls-1 {
        fill: none;
      }

      .cls-1, .cls-2, .cls-3 {
        stroke-linejoin: round;
      }

      .cls-1, .cls-2, .cls-3, .cls-4, .cls-5 {
        stroke-width: 8px;
      }

      .cls-1, .cls-2, .cls-3, .cls-4, .cls-5, .cls-6, .cls-7, .cls-8 {
        stroke: #402b26;
      }

      .cls-2 {
        fill: #a6a6a6;
      }

      .cls-3 {
        fill: #5c5c5c;
      }

      .cls-4 {
        fill: #ddd;
      }

      .cls-5 {
        fill: #b8b8b8;
      }

      .cls-9 {
        fill: #717171;
      }

      .cls-9, .cls-10, .cls-11 {
        stroke-width: 0px;
      }

      .cls-10 {
        fill: #a07c58;
      }

      .cls-11, .cls-6 {
        fill: #fff;
      }

      .cls-6, .cls-7, .cls-8 {
        stroke-width: 4px;
      }

      .cls-7 {
        fill: #eaeaea;
      }

      .cls-8 {
        fill: #cdcdcd;
      }
    </style>
  </defs>
  <path class="cls-10" d="m383,1694.5l1393.5-22.5c365.83,0,929.97,27.8,968,22.5,161.5-22.5,249,113,194,164.5s-203.5,61.5-403.5,61.5c-155.54,0-1304.02,29.35-1413.5,42-164.5,19-797,29-913-42-41.1-25.15-167.5-161.5,174.5-226Z"/>
  <path class="cls-9" d="m347.58,1821.58l102.3-1474.4,423.47,1359.29-383.54,18.05-142.24,97.06Z"/>
  <path class="cls-1" d="m347.58,1821.58l102.3-1474.4,423.47,1359.29-383.54,18.05-142.24,97.06Z"/>
  <path class="cls-3" d="m347.58,1821.58l593.93-27.88-68.16-87.23-383.54,18.05-142.24,97.06Z"/>
  <path class="cls-2" d="m696.91,1898.73l244.6-105.03-68.16-87.23-383.54,18.05,207.09,174.21Z"/>
  <path class="cls-4" d="m2582.11,385.93l-.58-3.23-3.28-.06-2118.81-40.36-4.74-.09.71,4.69,236.27,1551.23.54,3.54,3.57-.14,2138.29-84.59,4.59-.18-.81-4.53-255.75-1426.29Z"/>
  <path class="cls-5" d="m522.07,373l-4.68-.09.64,4.64,188.25,1354.44.5,3.57,3.6-.12,2053-70.67,4.57-.16-.77-4.51-211.75-1246.77-.55-3.27-3.32-.06-2029.5-37Z"/>
  <path class="cls-8" d="m523.53,374l-2.34-.04.33,2.32,192.05,1344.84.25,1.78,1.79-.06,2056.53-70.67,2.3-.08-.4-2.27-218.66-1240.02-.29-1.62-1.65-.03-2029.92-34.15Z"/>
  <path class="cls-7" d="m522.53,374l-2.36-.04.35,2.33,198.35,1339.54.26,1.78,1.79-.07,2054.77-75.97,2.31-.09-.41-2.27-222.2-1229.42-.3-1.62-1.64-.03-2030.92-34.15Z"/>
  <path class="cls-6" d="m521.53,374.5l-2.37-.04.36,2.34,204,1330.5.27,1.77,1.78-.07,2056-78.5,2.31-.09-.42-2.28-228.09-1218.35-.3-1.6-1.63-.03-2031.92-33.65Z"/>
  <path class="cls-11" d="m729.68,1687.27l-213.78-1316.25,2038.6,38.98,212.28,1197.77-2037.1,79.5Z"/>
</svg>